<?xml version="1.0"?>
<svg version="1.1" xmlns="http://www.w3.org/2000/svg" xmlns:xlink="http://www.w3.org/1999/xlink" x="0px" y="0px" viewBox="0 0 200 200" enable-background="new 0 0 200 200" xml:space="preserve">
<rect width="200" height="200" fill="#000000"></rect>
<path fill="#fcfcfc" d="m96.482 54.107-24.705 0.0063h-24.703l-0.01013 3.5273-0.01013 3.5293-3.5273 0.01013-3.5273 0.0076v84.703h14.111v-7.0742l14.119 0.0101 14.121 0.008 0.01013 3.5273 0.01013 3.5293h49.41v-7.0742h14.111v-7.0371h14.111v-7.0742h-7.0742v-7.08h-7.0371v-7.0371h7.0371v-7.0742h-7.0371v-14.115h7.0371v-7.037h7.0742v-7.0742h-14.109v-7.0742h14.111v-14.11h-28.22l-0.0101 3.5273-0.0101 3.5273-17.639 0.01013-17.639 0.0076zm-35.296 14.118h7.0352v14.148l-7.0449-0.0114-7.0469-0.0076-0.01013-3.5273-0.0076-3.5293h7.0742zm49.406 0h7.0351v7.0742h7.0742v7.0742h-14.109zm-38.807 10.594 17.629 0.0076 17.639 0.0076 0.0114 3.5293 0.008 3.5273h7.0371v21.184h-7.0371l-0.0101 7.0469-0.0101 7.0469-3.5273 0.0101-3.5273 0.008v-7.0742h-7.072v7.0742h-7.0371v-7.0742h-7.075v7.0742h-7.0371v-14.107l-3.5195-0.006-3.5273-0.0137-0.01013-10.582-0.0076-10.584h7.0742zm7.0312 10.592v14.109h7.0742v-14.11h-3.5371zm14.109 0v14.109h7.0742v-14.11h-3.534zm-38.812 21.179h14.109v14.111h-7.0352l-0.01013-3.5293-0.01013-3.5274-3.5273-0.0101-3.5273-0.008zm63.533 0h7.0566v7.0352l-3.5273 0.0101-3.5293 0.0101-0.0101 3.5273-0.008 3.5274h-7.0371v-14.107z"></path>
</svg>